<svg width="600" height="480" viewBox="0 0 600 480" fill="none" xmlns="http://www.w3.org/2000/svg">
<rect width="600" height="480" fill="#BFE1FF"/>
<g opacity="0.6" filter="url(#filter0_d)">
<rect x="100" y="352" width="400" height="64" rx="8" fill="white"/>
<path d="M127.707 384.383H120.699V389.633H128.891V392H117.734V374.938H128.809V377.328H120.699V382.039H127.707V384.383ZM133.672 379.32L133.754 380.785C134.691 379.652 135.922 379.086 137.445 379.086C140.086 379.086 141.43 380.598 141.477 383.621V392H138.629V383.785C138.629 382.98 138.453 382.387 138.102 382.004C137.758 381.613 137.191 381.418 136.402 381.418C135.254 381.418 134.398 381.938 133.836 382.977V392H130.988V379.32H133.672ZM147.957 376.238V379.32H150.195V381.43H147.957V388.508C147.957 388.992 148.051 389.344 148.238 389.562C148.434 389.773 148.777 389.879 149.27 389.879C149.598 389.879 149.93 389.84 150.266 389.762V391.965C149.617 392.145 148.992 392.234 148.391 392.234C146.203 392.234 145.109 391.027 145.109 388.613V381.43H143.023V379.32H145.109V376.238H147.957ZM157.965 392.234C156.16 392.234 154.695 391.668 153.57 390.535C152.453 389.395 151.895 387.879 151.895 385.988V385.637C151.895 384.371 152.137 383.242 152.621 382.25C153.113 381.25 153.801 380.473 154.684 379.918C155.566 379.363 156.551 379.086 157.637 379.086C159.363 379.086 160.695 379.637 161.633 380.738C162.578 381.84 163.051 383.398 163.051 385.414V386.562H154.766C154.852 387.609 155.199 388.438 155.809 389.047C156.426 389.656 157.199 389.961 158.129 389.961C159.434 389.961 160.496 389.434 161.316 388.379L162.852 389.844C162.344 390.602 161.664 391.191 160.812 391.613C159.969 392.027 159.02 392.234 157.965 392.234ZM157.625 381.371C156.844 381.371 156.211 381.645 155.727 382.191C155.25 382.738 154.945 383.5 154.812 384.477H160.238V384.266C160.176 383.312 159.922 382.594 159.477 382.109C159.031 381.617 158.414 381.371 157.625 381.371ZM171.91 381.922C171.535 381.859 171.148 381.828 170.75 381.828C169.445 381.828 168.566 382.328 168.113 383.328V392H165.266V379.32H167.984L168.055 380.738C168.742 379.637 169.695 379.086 170.914 379.086C171.32 379.086 171.656 379.141 171.922 379.25L171.91 381.922ZM184.121 387.922L186.699 379.32H189.734L184.695 393.922C183.922 396.055 182.609 397.121 180.758 397.121C180.344 397.121 179.887 397.051 179.387 396.91V394.707L179.926 394.742C180.645 394.742 181.184 394.609 181.543 394.344C181.91 394.086 182.199 393.648 182.41 393.031L182.82 391.941L178.367 379.32H181.438L184.121 387.922ZM190.66 385.543C190.66 384.301 190.906 383.184 191.398 382.191C191.891 381.191 192.582 380.426 193.473 379.895C194.363 379.355 195.387 379.086 196.543 379.086C198.254 379.086 199.641 379.637 200.703 380.738C201.773 381.84 202.352 383.301 202.438 385.121L202.449 385.789C202.449 387.039 202.207 388.156 201.723 389.141C201.246 390.125 200.559 390.887 199.66 391.426C198.77 391.965 197.738 392.234 196.566 392.234C194.777 392.234 193.344 391.641 192.266 390.453C191.195 389.258 190.66 387.668 190.66 385.684V385.543ZM193.508 385.789C193.508 387.094 193.777 388.117 194.316 388.859C194.855 389.594 195.605 389.961 196.566 389.961C197.527 389.961 198.273 389.586 198.805 388.836C199.344 388.086 199.613 386.988 199.613 385.543C199.613 384.262 199.336 383.246 198.781 382.496C198.234 381.746 197.488 381.371 196.543 381.371C195.613 381.371 194.875 381.742 194.328 382.484C193.781 383.219 193.508 384.32 193.508 385.789ZM212.539 390.758C211.703 391.742 210.516 392.234 208.977 392.234C207.602 392.234 206.559 391.832 205.848 391.027C205.145 390.223 204.793 389.059 204.793 387.535V379.32H207.641V387.5C207.641 389.109 208.309 389.914 209.645 389.914C211.027 389.914 211.961 389.418 212.445 388.426V379.32H215.293V392H212.609L212.539 390.758ZM224.832 381.922C224.457 381.859 224.07 381.828 223.672 381.828C222.367 381.828 221.488 382.328 221.035 383.328V392H218.188V379.32H220.906L220.977 380.738C221.664 379.637 222.617 379.086 223.836 379.086C224.242 379.086 224.578 379.141 224.844 379.25L224.832 381.922ZM242.434 388.027H235.824L234.441 392H231.359L237.805 374.938H240.465L246.922 392H243.828L242.434 388.027ZM236.656 385.637H241.602L239.129 378.559L236.656 385.637ZM248.059 385.566C248.059 383.613 248.512 382.047 249.418 380.867C250.324 379.68 251.539 379.086 253.062 379.086C254.406 379.086 255.492 379.555 256.32 380.492V374H259.168V392H256.59L256.449 390.688C255.598 391.719 254.461 392.234 253.039 392.234C251.555 392.234 250.352 391.637 249.43 390.441C248.516 389.246 248.059 387.621 248.059 385.566ZM250.906 385.812C250.906 387.102 251.152 388.109 251.645 388.836C252.145 389.555 252.852 389.914 253.766 389.914C254.93 389.914 255.781 389.395 256.32 388.355V382.941C255.797 381.926 254.953 381.418 253.789 381.418C252.867 381.418 252.156 381.785 251.656 382.52C251.156 383.246 250.906 384.344 250.906 385.812ZM261.605 385.566C261.605 383.613 262.059 382.047 262.965 380.867C263.871 379.68 265.086 379.086 266.609 379.086C267.953 379.086 269.039 379.555 269.867 380.492V374H272.715V392H270.137L269.996 390.688C269.145 391.719 268.008 392.234 266.586 392.234C265.102 392.234 263.898 391.637 262.977 390.441C262.062 389.246 261.605 387.621 261.605 385.566ZM264.453 385.812C264.453 387.102 264.699 388.109 265.191 388.836C265.691 389.555 266.398 389.914 267.312 389.914C268.477 389.914 269.328 389.395 269.867 388.355V382.941C269.344 381.926 268.5 381.418 267.336 381.418C266.414 381.418 265.703 381.785 265.203 382.52C264.703 383.246 264.453 384.344 264.453 385.812ZM282.324 381.922C281.949 381.859 281.562 381.828 281.164 381.828C279.859 381.828 278.98 382.328 278.527 383.328V392H275.68V379.32H278.398L278.469 380.738C279.156 379.637 280.109 379.086 281.328 379.086C281.734 379.086 282.07 379.141 282.336 379.25L282.324 381.922ZM289.473 392.234C287.668 392.234 286.203 391.668 285.078 390.535C283.961 389.395 283.402 387.879 283.402 385.988V385.637C283.402 384.371 283.645 383.242 284.129 382.25C284.621 381.25 285.309 380.473 286.191 379.918C287.074 379.363 288.059 379.086 289.145 379.086C290.871 379.086 292.203 379.637 293.141 380.738C294.086 381.84 294.559 383.398 294.559 385.414V386.562H286.273C286.359 387.609 286.707 388.438 287.316 389.047C287.934 389.656 288.707 389.961 289.637 389.961C290.941 389.961 292.004 389.434 292.824 388.379L294.359 389.844C293.852 390.602 293.172 391.191 292.32 391.613C291.477 392.027 290.527 392.234 289.473 392.234ZM289.133 381.371C288.352 381.371 287.719 381.645 287.234 382.191C286.758 382.738 286.453 383.5 286.32 384.477H291.746V384.266C291.684 383.312 291.43 382.594 290.984 382.109C290.539 381.617 289.922 381.371 289.133 381.371ZM303.887 388.555C303.887 388.047 303.676 387.66 303.254 387.395C302.84 387.129 302.148 386.895 301.18 386.691C300.211 386.488 299.402 386.23 298.754 385.918C297.332 385.23 296.621 384.234 296.621 382.93C296.621 381.836 297.082 380.922 298.004 380.188C298.926 379.453 300.098 379.086 301.52 379.086C303.035 379.086 304.258 379.461 305.188 380.211C306.125 380.961 306.594 381.934 306.594 383.129H303.746C303.746 382.582 303.543 382.129 303.137 381.77C302.73 381.402 302.191 381.219 301.52 381.219C300.895 381.219 300.383 381.363 299.984 381.652C299.594 381.941 299.398 382.328 299.398 382.812C299.398 383.25 299.582 383.59 299.949 383.832C300.316 384.074 301.059 384.32 302.176 384.57C303.293 384.812 304.168 385.105 304.801 385.449C305.441 385.785 305.914 386.191 306.219 386.668C306.531 387.145 306.688 387.723 306.688 388.402C306.688 389.543 306.215 390.469 305.27 391.18C304.324 391.883 303.086 392.234 301.555 392.234C300.516 392.234 299.59 392.047 298.777 391.672C297.965 391.297 297.332 390.781 296.879 390.125C296.426 389.469 296.199 388.762 296.199 388.004H298.965C299.004 388.676 299.258 389.195 299.727 389.562C300.195 389.922 300.816 390.102 301.59 390.102C302.34 390.102 302.91 389.961 303.301 389.68C303.691 389.391 303.887 389.016 303.887 388.555ZM316.285 388.555C316.285 388.047 316.074 387.66 315.652 387.395C315.238 387.129 314.547 386.895 313.578 386.691C312.609 386.488 311.801 386.23 311.152 385.918C309.73 385.23 309.02 384.234 309.02 382.93C309.02 381.836 309.48 380.922 310.402 380.188C311.324 379.453 312.496 379.086 313.918 379.086C315.434 379.086 316.656 379.461 317.586 380.211C318.523 380.961 318.992 381.934 318.992 383.129H316.145C316.145 382.582 315.941 382.129 315.535 381.77C315.129 381.402 314.59 381.219 313.918 381.219C313.293 381.219 312.781 381.363 312.383 381.652C311.992 381.941 311.797 382.328 311.797 382.812C311.797 383.25 311.98 383.59 312.348 383.832C312.715 384.074 313.457 384.32 314.574 384.57C315.691 384.812 316.566 385.105 317.199 385.449C317.84 385.785 318.312 386.191 318.617 386.668C318.93 387.145 319.086 387.723 319.086 388.402C319.086 389.543 318.613 390.469 317.668 391.18C316.723 391.883 315.484 392.234 313.953 392.234C312.914 392.234 311.988 392.047 311.176 391.672C310.363 391.297 309.73 390.781 309.277 390.125C308.824 389.469 308.598 388.762 308.598 388.004H311.363C311.402 388.676 311.656 389.195 312.125 389.562C312.594 389.922 313.215 390.102 313.988 390.102C314.738 390.102 315.309 389.961 315.699 389.68C316.09 389.391 316.285 389.016 316.285 388.555Z" fill="black" fill-opacity="0.38"/>
</g>
<g opacity="0.8" filter="url(#filter1_d)">
<rect x="100" y="208" width="400" height="64" rx="8" fill="white"/>
<path d="M127.707 240.383H120.699V245.633H128.891V248H117.734V230.938H128.809V233.328H120.699V238.039H127.707V240.383ZM133.672 235.32L133.754 236.785C134.691 235.652 135.922 235.086 137.445 235.086C140.086 235.086 141.43 236.598 141.477 239.621V248H138.629V239.785C138.629 238.98 138.453 238.387 138.102 238.004C137.758 237.613 137.191 237.418 136.402 237.418C135.254 237.418 134.398 237.938 133.836 238.977V248H130.988V235.32H133.672ZM147.957 232.238V235.32H150.195V237.43H147.957V244.508C147.957 244.992 148.051 245.344 148.238 245.562C148.434 245.773 148.777 245.879 149.27 245.879C149.598 245.879 149.93 245.84 150.266 245.762V247.965C149.617 248.145 148.992 248.234 148.391 248.234C146.203 248.234 145.109 247.027 145.109 244.613V237.43H143.023V235.32H145.109V232.238H147.957ZM157.965 248.234C156.16 248.234 154.695 247.668 153.57 246.535C152.453 245.395 151.895 243.879 151.895 241.988V241.637C151.895 240.371 152.137 239.242 152.621 238.25C153.113 237.25 153.801 236.473 154.684 235.918C155.566 235.363 156.551 235.086 157.637 235.086C159.363 235.086 160.695 235.637 161.633 236.738C162.578 237.84 163.051 239.398 163.051 241.414V242.562H154.766C154.852 243.609 155.199 244.438 155.809 245.047C156.426 245.656 157.199 245.961 158.129 245.961C159.434 245.961 160.496 245.434 161.316 244.379L162.852 245.844C162.344 246.602 161.664 247.191 160.812 247.613C159.969 248.027 159.02 248.234 157.965 248.234ZM157.625 237.371C156.844 237.371 156.211 237.645 155.727 238.191C155.25 238.738 154.945 239.5 154.812 240.477H160.238V240.266C160.176 239.312 159.922 238.594 159.477 238.109C159.031 237.617 158.414 237.371 157.625 237.371ZM171.91 237.922C171.535 237.859 171.148 237.828 170.75 237.828C169.445 237.828 168.566 238.328 168.113 239.328V248H165.266V235.32H167.984L168.055 236.738C168.742 235.637 169.695 235.086 170.914 235.086C171.32 235.086 171.656 235.141 171.922 235.25L171.91 237.922ZM184.121 243.922L186.699 235.32H189.734L184.695 249.922C183.922 252.055 182.609 253.121 180.758 253.121C180.344 253.121 179.887 253.051 179.387 252.91V250.707L179.926 250.742C180.645 250.742 181.184 250.609 181.543 250.344C181.91 250.086 182.199 249.648 182.41 249.031L182.82 247.941L178.367 235.32H181.438L184.121 243.922ZM190.66 241.543C190.66 240.301 190.906 239.184 191.398 238.191C191.891 237.191 192.582 236.426 193.473 235.895C194.363 235.355 195.387 235.086 196.543 235.086C198.254 235.086 199.641 235.637 200.703 236.738C201.773 237.84 202.352 239.301 202.438 241.121L202.449 241.789C202.449 243.039 202.207 244.156 201.723 245.141C201.246 246.125 200.559 246.887 199.66 247.426C198.77 247.965 197.738 248.234 196.566 248.234C194.777 248.234 193.344 247.641 192.266 246.453C191.195 245.258 190.66 243.668 190.66 241.684V241.543ZM193.508 241.789C193.508 243.094 193.777 244.117 194.316 244.859C194.855 245.594 195.605 245.961 196.566 245.961C197.527 245.961 198.273 245.586 198.805 244.836C199.344 244.086 199.613 242.988 199.613 241.543C199.613 240.262 199.336 239.246 198.781 238.496C198.234 237.746 197.488 237.371 196.543 237.371C195.613 237.371 194.875 237.742 194.328 238.484C193.781 239.219 193.508 240.32 193.508 241.789ZM212.539 246.758C211.703 247.742 210.516 248.234 208.977 248.234C207.602 248.234 206.559 247.832 205.848 247.027C205.145 246.223 204.793 245.059 204.793 243.535V235.32H207.641V243.5C207.641 245.109 208.309 245.914 209.645 245.914C211.027 245.914 211.961 245.418 212.445 244.426V235.32H215.293V248H212.609L212.539 246.758ZM224.832 237.922C224.457 237.859 224.07 237.828 223.672 237.828C222.367 237.828 221.488 238.328 221.035 239.328V248H218.188V235.32H220.906L220.977 236.738C221.664 235.637 222.617 235.086 223.836 235.086C224.242 235.086 224.578 235.141 224.844 235.25L224.832 237.922ZM235.848 241.66V248H232.883V230.938H239.41C241.316 230.938 242.828 231.434 243.945 232.426C245.07 233.418 245.633 234.73 245.633 236.363C245.633 238.035 245.082 239.336 243.98 240.266C242.887 241.195 241.352 241.66 239.375 241.66H235.848ZM235.848 239.281H239.41C240.465 239.281 241.27 239.035 241.824 238.543C242.379 238.043 242.656 237.324 242.656 236.387C242.656 235.465 242.375 234.73 241.812 234.184C241.25 233.629 240.477 233.344 239.492 233.328H235.848V239.281ZM255.699 244.027H249.09L247.707 248H244.625L251.07 230.938H253.73L260.188 248H257.094L255.699 244.027ZM249.922 241.637H254.867L252.395 234.559L249.922 241.637ZM275.668 248H272.703L265.098 235.895V248H262.133V230.938H265.098L272.727 243.09V230.938H275.668V248ZM287.516 235.32L287.598 236.785C288.535 235.652 289.766 235.086 291.289 235.086C293.93 235.086 295.273 236.598 295.32 239.621V248H292.473V239.785C292.473 238.98 292.297 238.387 291.945 238.004C291.602 237.613 291.035 237.418 290.246 237.418C289.098 237.418 288.242 237.938 287.68 238.977V248H284.832V235.32H287.516ZM305.914 246.758C305.078 247.742 303.891 248.234 302.352 248.234C300.977 248.234 299.934 247.832 299.223 247.027C298.52 246.223 298.168 245.059 298.168 243.535V235.32H301.016V243.5C301.016 245.109 301.684 245.914 303.02 245.914C304.402 245.914 305.336 245.418 305.82 244.426V235.32H308.668V248H305.984L305.914 246.758ZM314.246 235.32L314.328 236.645C315.219 235.605 316.438 235.086 317.984 235.086C319.68 235.086 320.84 235.734 321.465 237.031C322.387 235.734 323.684 235.086 325.355 235.086C326.754 235.086 327.793 235.473 328.473 236.246C329.16 237.02 329.512 238.16 329.527 239.668V248H326.68V239.75C326.68 238.945 326.504 238.355 326.152 237.98C325.801 237.605 325.219 237.418 324.406 237.418C323.758 237.418 323.227 237.594 322.812 237.945C322.406 238.289 322.121 238.742 321.957 239.305L321.969 248H319.121V239.656C319.082 238.164 318.32 237.418 316.836 237.418C315.695 237.418 314.887 237.883 314.41 238.812V248H311.562V235.32H314.246ZM343.578 241.789C343.578 243.758 343.137 245.324 342.254 246.488C341.379 247.652 340.172 248.234 338.633 248.234C337.148 248.234 335.992 247.699 335.164 246.629L335.023 248H332.445V230H335.293V236.539C336.113 235.57 337.219 235.086 338.609 235.086C340.156 235.086 341.371 235.66 342.254 236.809C343.137 237.957 343.578 239.562 343.578 241.625V241.789ZM340.73 241.543C340.73 240.168 340.488 239.137 340.004 238.449C339.52 237.762 338.816 237.418 337.895 237.418C336.66 237.418 335.793 237.957 335.293 239.035V244.262C335.801 245.363 336.676 245.914 337.918 245.914C338.809 245.914 339.496 245.582 339.98 244.918C340.465 244.254 340.715 243.25 340.73 241.906V241.543ZM351.559 248.234C349.754 248.234 348.289 247.668 347.164 246.535C346.047 245.395 345.488 243.879 345.488 241.988V241.637C345.488 240.371 345.73 239.242 346.215 238.25C346.707 237.25 347.395 236.473 348.277 235.918C349.16 235.363 350.145 235.086 351.23 235.086C352.957 235.086 354.289 235.637 355.227 236.738C356.172 237.84 356.645 239.398 356.645 241.414V242.562H348.359C348.445 243.609 348.793 244.438 349.402 245.047C350.02 245.656 350.793 245.961 351.723 245.961C353.027 245.961 354.09 245.434 354.91 244.379L356.445 245.844C355.938 246.602 355.258 247.191 354.406 247.613C353.562 248.027 352.613 248.234 351.559 248.234ZM351.219 237.371C350.438 237.371 349.805 237.645 349.32 238.191C348.844 238.738 348.539 239.5 348.406 240.477H353.832V240.266C353.77 239.312 353.516 238.594 353.07 238.109C352.625 237.617 352.008 237.371 351.219 237.371ZM365.504 237.922C365.129 237.859 364.742 237.828 364.344 237.828C363.039 237.828 362.16 238.328 361.707 239.328V248H358.859V235.32H361.578L361.648 236.738C362.336 235.637 363.289 235.086 364.508 235.086C364.914 235.086 365.25 235.141 365.516 235.25L365.504 237.922Z" fill="black" fill-opacity="0.6"/>
</g>
<g filter="url(#filter2_d)">
<rect x="100" y="64" width="400" height="64" rx="8" fill="white"/>
<path d="M127.707 96.3828H120.699V101.633H128.891V104H117.734V86.9375H128.809V89.3281H120.699V94.0391H127.707V96.3828ZM133.672 91.3203L133.754 92.7852C134.691 91.6523 135.922 91.0859 137.445 91.0859C140.086 91.0859 141.43 92.5977 141.477 95.6211V104H138.629V95.7852C138.629 94.9805 138.453 94.3867 138.102 94.0039C137.758 93.6133 137.191 93.418 136.402 93.418C135.254 93.418 134.398 93.9375 133.836 94.9766V104H130.988V91.3203H133.672ZM147.957 88.2383V91.3203H150.195V93.4297H147.957V100.508C147.957 100.992 148.051 101.344 148.238 101.562C148.434 101.773 148.777 101.879 149.27 101.879C149.598 101.879 149.93 101.84 150.266 101.762V103.965C149.617 104.145 148.992 104.234 148.391 104.234C146.203 104.234 145.109 103.027 145.109 100.613V93.4297H143.023V91.3203H145.109V88.2383H147.957ZM157.965 104.234C156.16 104.234 154.695 103.668 153.57 102.535C152.453 101.395 151.895 99.8789 151.895 97.9883V97.6367C151.895 96.3711 152.137 95.2422 152.621 94.25C153.113 93.25 153.801 92.4727 154.684 91.918C155.566 91.3633 156.551 91.0859 157.637 91.0859C159.363 91.0859 160.695 91.6367 161.633 92.7383C162.578 93.8398 163.051 95.3984 163.051 97.4141V98.5625H154.766C154.852 99.6094 155.199 100.438 155.809 101.047C156.426 101.656 157.199 101.961 158.129 101.961C159.434 101.961 160.496 101.434 161.316 100.379L162.852 101.844C162.344 102.602 161.664 103.191 160.812 103.613C159.969 104.027 159.02 104.234 157.965 104.234ZM157.625 93.3711C156.844 93.3711 156.211 93.6445 155.727 94.1914C155.25 94.7383 154.945 95.5 154.812 96.4766H160.238V96.2656C160.176 95.3125 159.922 94.5938 159.477 94.1094C159.031 93.6172 158.414 93.3711 157.625 93.3711ZM171.91 93.9219C171.535 93.8594 171.148 93.8281 170.75 93.8281C169.445 93.8281 168.566 94.3281 168.113 95.3281V104H165.266V91.3203H167.984L168.055 92.7383C168.742 91.6367 169.695 91.0859 170.914 91.0859C171.32 91.0859 171.656 91.1406 171.922 91.25L171.91 93.9219ZM184.121 99.9219L186.699 91.3203H189.734L184.695 105.922C183.922 108.055 182.609 109.121 180.758 109.121C180.344 109.121 179.887 109.051 179.387 108.91V106.707L179.926 106.742C180.645 106.742 181.184 106.609 181.543 106.344C181.91 106.086 182.199 105.648 182.41 105.031L182.82 103.941L178.367 91.3203H181.438L184.121 99.9219ZM190.66 97.543C190.66 96.3008 190.906 95.1836 191.398 94.1914C191.891 93.1914 192.582 92.4258 193.473 91.8945C194.363 91.3555 195.387 91.0859 196.543 91.0859C198.254 91.0859 199.641 91.6367 200.703 92.7383C201.773 93.8398 202.352 95.3008 202.438 97.1211L202.449 97.7891C202.449 99.0391 202.207 100.156 201.723 101.141C201.246 102.125 200.559 102.887 199.66 103.426C198.77 103.965 197.738 104.234 196.566 104.234C194.777 104.234 193.344 103.641 192.266 102.453C191.195 101.258 190.66 99.668 190.66 97.6836V97.543ZM193.508 97.7891C193.508 99.0938 193.777 100.117 194.316 100.859C194.855 101.594 195.605 101.961 196.566 101.961C197.527 101.961 198.273 101.586 198.805 100.836C199.344 100.086 199.613 98.9883 199.613 97.543C199.613 96.2617 199.336 95.2461 198.781 94.4961C198.234 93.7461 197.488 93.3711 196.543 93.3711C195.613 93.3711 194.875 93.7422 194.328 94.4844C193.781 95.2188 193.508 96.3203 193.508 97.7891ZM212.539 102.758C211.703 103.742 210.516 104.234 208.977 104.234C207.602 104.234 206.559 103.832 205.848 103.027C205.145 102.223 204.793 101.059 204.793 99.5352V91.3203H207.641V99.5C207.641 101.109 208.309 101.914 209.645 101.914C211.027 101.914 211.961 101.418 212.445 100.426V91.3203H215.293V104H212.609L212.539 102.758ZM224.832 93.9219C224.457 93.8594 224.07 93.8281 223.672 93.8281C222.367 93.8281 221.488 94.3281 221.035 95.3281V104H218.188V91.3203H220.906L220.977 92.7383C221.664 91.6367 222.617 91.0859 223.836 91.0859C224.242 91.0859 224.578 91.1406 224.844 91.25L224.832 93.9219ZM243.711 97.7891C243.711 99.75 243.266 101.316 242.375 102.488C241.484 103.652 240.289 104.234 238.789 104.234C237.398 104.234 236.285 103.777 235.449 102.863V108.875H232.602V91.3203H235.227L235.344 92.6094C236.18 91.5938 237.316 91.0859 238.754 91.0859C240.301 91.0859 241.512 91.6641 242.387 92.8203C243.27 93.9688 243.711 95.5664 243.711 97.6133V97.7891ZM240.875 97.543C240.875 96.2773 240.621 95.2734 240.113 94.5312C239.613 93.7891 238.895 93.418 237.957 93.418C236.793 93.418 235.957 93.8984 235.449 94.8594V100.484C235.965 101.469 236.809 101.961 237.98 101.961C238.887 101.961 239.594 101.598 240.102 100.871C240.617 100.137 240.875 99.0273 240.875 97.543ZM248.938 92.7031C249.867 91.625 251.043 91.0859 252.465 91.0859C255.168 91.0859 256.539 92.6289 256.578 95.7148V104H253.73V95.8203C253.73 94.9453 253.539 94.3281 253.156 93.9688C252.781 93.6016 252.227 93.418 251.492 93.418C250.352 93.418 249.5 93.9258 248.938 94.9414V104H246.09V86H248.938V92.7031ZM258.934 97.543C258.934 96.3008 259.18 95.1836 259.672 94.1914C260.164 93.1914 260.855 92.4258 261.746 91.8945C262.637 91.3555 263.66 91.0859 264.816 91.0859C266.527 91.0859 267.914 91.6367 268.977 92.7383C270.047 93.8398 270.625 95.3008 270.711 97.1211L270.723 97.7891C270.723 99.0391 270.48 100.156 269.996 101.141C269.52 102.125 268.832 102.887 267.934 103.426C267.043 103.965 266.012 104.234 264.84 104.234C263.051 104.234 261.617 103.641 260.539 102.453C259.469 101.258 258.934 99.668 258.934 97.6836V97.543ZM261.781 97.7891C261.781 99.0938 262.051 100.117 262.59 100.859C263.129 101.594 263.879 101.961 264.84 101.961C265.801 101.961 266.547 101.586 267.078 100.836C267.617 100.086 267.887 98.9883 267.887 97.543C267.887 96.2617 267.609 95.2461 267.055 94.4961C266.508 93.7461 265.762 93.3711 264.816 93.3711C263.887 93.3711 263.148 93.7422 262.602 94.4844C262.055 95.2188 261.781 96.3203 261.781 97.7891ZM275.773 91.3203L275.855 92.7852C276.793 91.6523 278.023 91.0859 279.547 91.0859C282.188 91.0859 283.531 92.5977 283.578 95.6211V104H280.73V95.7852C280.73 94.9805 280.555 94.3867 280.203 94.0039C279.859 93.6133 279.293 93.418 278.504 93.418C277.355 93.418 276.5 93.9375 275.938 94.9766V104H273.09V91.3203H275.773ZM292.074 104.234C290.27 104.234 288.805 103.668 287.68 102.535C286.562 101.395 286.004 99.8789 286.004 97.9883V97.6367C286.004 96.3711 286.246 95.2422 286.73 94.25C287.223 93.25 287.91 92.4727 288.793 91.918C289.676 91.3633 290.66 91.0859 291.746 91.0859C293.473 91.0859 294.805 91.6367 295.742 92.7383C296.688 93.8398 297.16 95.3984 297.16 97.4141V98.5625H288.875C288.961 99.6094 289.309 100.438 289.918 101.047C290.535 101.656 291.309 101.961 292.238 101.961C293.543 101.961 294.605 101.434 295.426 100.379L296.961 101.844C296.453 102.602 295.773 103.191 294.922 103.613C294.078 104.027 293.129 104.234 292.074 104.234ZM291.734 93.3711C290.953 93.3711 290.32 93.6445 289.836 94.1914C289.359 94.7383 289.055 95.5 288.922 96.4766H294.348V96.2656C294.285 95.3125 294.031 94.5938 293.586 94.1094C293.141 93.6172 292.523 93.3711 291.734 93.3711ZM308 91.3203L308.082 92.7852C309.02 91.6523 310.25 91.0859 311.773 91.0859C314.414 91.0859 315.758 92.5977 315.805 95.6211V104H312.957V95.7852C312.957 94.9805 312.781 94.3867 312.43 94.0039C312.086 93.6133 311.52 93.418 310.73 93.418C309.582 93.418 308.727 93.9375 308.164 94.9766V104H305.316V91.3203H308ZM326.398 102.758C325.562 103.742 324.375 104.234 322.836 104.234C321.461 104.234 320.418 103.832 319.707 103.027C319.004 102.223 318.652 101.059 318.652 99.5352V91.3203H321.5V99.5C321.5 101.109 322.168 101.914 323.504 101.914C324.887 101.914 325.82 101.418 326.305 100.426V91.3203H329.152V104H326.469L326.398 102.758ZM334.73 91.3203L334.812 92.6445C335.703 91.6055 336.922 91.0859 338.469 91.0859C340.164 91.0859 341.324 91.7344 341.949 93.0312C342.871 91.7344 344.168 91.0859 345.84 91.0859C347.238 91.0859 348.277 91.4727 348.957 92.2461C349.645 93.0195 349.996 94.1602 350.012 95.668V104H347.164V95.75C347.164 94.9453 346.988 94.3555 346.637 93.9805C346.285 93.6055 345.703 93.418 344.891 93.418C344.242 93.418 343.711 93.5938 343.297 93.9453C342.891 94.2891 342.605 94.7422 342.441 95.3047L342.453 104H339.605V95.6562C339.566 94.1641 338.805 93.418 337.32 93.418C336.18 93.418 335.371 93.8828 334.895 94.8125V104H332.047V91.3203H334.73ZM364.062 97.7891C364.062 99.7578 363.621 101.324 362.738 102.488C361.863 103.652 360.656 104.234 359.117 104.234C357.633 104.234 356.477 103.699 355.648 102.629L355.508 104H352.93V86H355.777V92.5391C356.598 91.5703 357.703 91.0859 359.094 91.0859C360.641 91.0859 361.855 91.6602 362.738 92.8086C363.621 93.957 364.062 95.5625 364.062 97.625V97.7891ZM361.215 97.543C361.215 96.168 360.973 95.1367 360.488 94.4492C360.004 93.7617 359.301 93.418 358.379 93.418C357.145 93.418 356.277 93.957 355.777 95.0352V100.262C356.285 101.363 357.16 101.914 358.402 101.914C359.293 101.914 359.98 101.582 360.465 100.918C360.949 100.254 361.199 99.25 361.215 97.9062V97.543ZM372.043 104.234C370.238 104.234 368.773 103.668 367.648 102.535C366.531 101.395 365.973 99.8789 365.973 97.9883V97.6367C365.973 96.3711 366.215 95.2422 366.699 94.25C367.191 93.25 367.879 92.4727 368.762 91.918C369.645 91.3633 370.629 91.0859 371.715 91.0859C373.441 91.0859 374.773 91.6367 375.711 92.7383C376.656 93.8398 377.129 95.3984 377.129 97.4141V98.5625H368.844C368.93 99.6094 369.277 100.438 369.887 101.047C370.504 101.656 371.277 101.961 372.207 101.961C373.512 101.961 374.574 101.434 375.395 100.379L376.93 101.844C376.422 102.602 375.742 103.191 374.891 103.613C374.047 104.027 373.098 104.234 372.043 104.234ZM371.703 93.3711C370.922 93.3711 370.289 93.6445 369.805 94.1914C369.328 94.7383 369.023 95.5 368.891 96.4766H374.316V96.2656C374.254 95.3125 374 94.5938 373.555 94.1094C373.109 93.6172 372.492 93.3711 371.703 93.3711ZM385.988 93.9219C385.613 93.8594 385.227 93.8281 384.828 93.8281C383.523 93.8281 382.645 94.3281 382.191 95.3281V104H379.344V91.3203H382.062L382.133 92.7383C382.82 91.6367 383.773 91.0859 384.992 91.0859C385.398 91.0859 385.734 91.1406 386 91.25L385.988 93.9219Z" fill="black" fill-opacity="0.6"/>
</g>
<defs>
<filter id="filter0_d" x="80" y="342" width="440" height="104" filterUnits="userSpaceOnUse" color-interpolation-filters="sRGB">
<feFlood flood-opacity="0" result="BackgroundImageFix"/>
<feColorMatrix in="SourceAlpha" type="matrix" values="0 0 0 0 0 0 0 0 0 0 0 0 0 0 0 0 0 0 127 0"/>
<feOffset dy="10"/>
<feGaussianBlur stdDeviation="10"/>
<feColorMatrix type="matrix" values="0 0 0 0 0 0 0 0 0 0 0 0 0 0 0 0 0 0 0.1 0"/>
<feBlend mode="normal" in2="BackgroundImageFix" result="effect1_dropShadow"/>
<feBlend mode="normal" in="SourceGraphic" in2="effect1_dropShadow" result="shape"/>
</filter>
<filter id="filter1_d" x="80" y="198" width="440" height="104" filterUnits="userSpaceOnUse" color-interpolation-filters="sRGB">
<feFlood flood-opacity="0" result="BackgroundImageFix"/>
<feColorMatrix in="SourceAlpha" type="matrix" values="0 0 0 0 0 0 0 0 0 0 0 0 0 0 0 0 0 0 127 0"/>
<feOffset dy="10"/>
<feGaussianBlur stdDeviation="10"/>
<feColorMatrix type="matrix" values="0 0 0 0 0 0 0 0 0 0 0 0 0 0 0 0 0 0 0.1 0"/>
<feBlend mode="normal" in2="BackgroundImageFix" result="effect1_dropShadow"/>
<feBlend mode="normal" in="SourceGraphic" in2="effect1_dropShadow" result="shape"/>
</filter>
<filter id="filter2_d" x="80" y="54" width="440" height="104" filterUnits="userSpaceOnUse" color-interpolation-filters="sRGB">
<feFlood flood-opacity="0" result="BackgroundImageFix"/>
<feColorMatrix in="SourceAlpha" type="matrix" values="0 0 0 0 0 0 0 0 0 0 0 0 0 0 0 0 0 0 127 0"/>
<feOffset dy="10"/>
<feGaussianBlur stdDeviation="10"/>
<feColorMatrix type="matrix" values="0 0 0 0 0 0 0 0 0 0 0 0 0 0 0 0 0 0 0.1 0"/>
<feBlend mode="normal" in2="BackgroundImageFix" result="effect1_dropShadow"/>
<feBlend mode="normal" in="SourceGraphic" in2="effect1_dropShadow" result="shape"/>
</filter>
</defs>
</svg>
